<?xml version="1.0" encoding="UTF-8" standalone="no"?>
<!DOCTYPE svg PUBLIC "-//W3C//DTD SVG 1.1//EN" "http://www.w3.org/Graphics/SVG/1.1/DTD/svg11.dtd">
<svg width="100%" height="100%" viewBox="0 0 297 39" version="1.1" xmlns="http://www.w3.org/2000/svg" xmlns:xlink="http://www.w3.org/1999/xlink" xml:space="preserve" xmlns:serif="http://www.serif.com/" style="fill-rule:evenodd;clip-rule:evenodd;stroke-linecap:round;">
    <g transform="matrix(0.75,0,0,0.75,0,0)">
        <g transform="matrix(0,1,1,0,21.7113,26.0886)">
            <path d="M-10.923,-10.923L10.923,-10.923" style="fill:none;fill-rule:nonzero;stroke:rgb(137,163,46);stroke-width:2.28px;"/>
        </g>
        <g transform="matrix(0,1,1,0,40.5905,26.0888)">
            <path d="M-18.745,-18.745L18.745,-18.745" style="fill:none;fill-rule:nonzero;stroke:rgb(137,163,46);stroke-width:2.28px;"/>
        </g>
        <g transform="matrix(0,1,1,0,87.8511,25.6121)">
            <path d="M-10.923,-10.923L10.923,-10.923" style="fill:none;fill-rule:nonzero;stroke:rgb(137,163,46);stroke-width:2.28px;"/>
        </g>
        <g transform="matrix(0,1,1,0,84.6148,25.6123)">
            <path d="M-18.745,-18.745L18.745,-18.745" style="fill:none;fill-rule:nonzero;stroke:rgb(137,163,46);stroke-width:2.28px;"/>
        </g>
        <g transform="matrix(1,0,0,1,32.3644,19.7505)">
            <path d="M0,-18.07L0,0.539L22.925,0.539L22.925,-18.609" style="fill:none;fill-rule:nonzero;stroke:rgb(137,163,46);stroke-width:2.28px;stroke-linejoin:round;"/>
        </g>
        <g transform="matrix(0,-1,-1,0,52.9248,52.0521)">
            <path d="M2.427,20.498L21.036,20.498L17.26,8.999L21.036,-2.427L1.888,-2.427" style="fill:none;fill-rule:nonzero;stroke:rgb(137,163,46);stroke-width:2.28px;stroke-linejoin:round;"/>
        </g>
        <g transform="matrix(1,0,0,1,1.942,22.7169)">
            <path d="M0,3.884C1.072,3.884 1.942,3.014 1.942,1.942C1.942,0.87 1.072,0 0,0C-1.072,0 -1.942,0.87 -1.942,1.942C-1.942,3.014 -1.072,3.884 0,3.884" style="fill:rgb(137,163,46);fill-rule:nonzero;"/>
        </g>
        <g transform="matrix(1,0,0,1,84.4707,22.7169)">
            <path d="M0,3.884C1.072,3.884 1.942,3.014 1.942,1.942C1.942,0.87 1.072,0 0,0C-1.072,0 -1.942,0.87 -1.942,1.942C-1.942,3.014 -1.072,3.884 0,3.884" style="fill:rgb(137,163,46);fill-rule:nonzero;"/>
        </g>
        <g transform="matrix(1,0,0,1,-29.9998,-164.873)">
            <text x="122.948px" y="189.114px" style="font-family:'LucidaGrande-Bold', 'Lucida Grande', sans-serif;font-weight:600;font-size:29.259px;fill:rgb(35,31,32);">H<tspan x="147.058px 169.882px 191.348px 215.829px 238.653px 262.42px 285.515px 304.367px 325.834px 343.915px 357.438px 382.805px 404.271px " y="189.114px 189.114px 189.114px 189.114px 189.114px 189.114px 189.114px 189.114px 189.114px 189.114px 189.114px 189.114px 189.114px ">ARDANGERFJORD</tspan></text>
            <text x="123.999px" y="209.88px" style="font-family:'LucidaGrande-Bold', 'Lucida Grande', sans-serif;font-weight:600;font-size:17.966px;fill:rgb(35,31,32);">M<tspan x="140.774px 154.471px 168.333px 182.029px 192.76px 199.184px 213.459px 224.717px " y="209.88px 209.88px 209.88px 209.88px 209.88px 209.88px 209.88px 209.88px ">AGASINET</tspan></text>
        </g>
    </g>
</svg>
