<?xml version="1.0" encoding="UTF-8" standalone="no"?>
<!DOCTYPE svg PUBLIC "-//W3C//DTD SVG 1.1//EN" "http://www.w3.org/Graphics/SVG/1.1/DTD/svg11.dtd">
<svg width="100%" height="100%" viewBox="0 0 1653 214" version="1.1" xmlns="http://www.w3.org/2000/svg" xmlns:xlink="http://www.w3.org/1999/xlink" xml:space="preserve" xmlns:serif="http://www.serif.com/" style="fill-rule:evenodd;clip-rule:evenodd;stroke-linecap:round;">
    <g id="Artboard1" transform="matrix(0.978685,0,0,1,0,0)">
        <rect x="0" y="0" width="1688.71" height="213.771" style="fill:none;"/>
        <g transform="matrix(0,4.16667,4.25741,0,92.434,108.702)">
            <path d="M-10.923,-10.923L10.923,-10.923" style="fill:none;fill-rule:nonzero;stroke:rgb(137,163,46);stroke-width:2.28px;"/>
        </g>
        <g transform="matrix(0,4.16667,4.25741,0,172.811,108.703)">
            <path d="M-18.745,-18.745L18.745,-18.745" style="fill:none;fill-rule:nonzero;stroke:rgb(137,163,46);stroke-width:2.28px;"/>
        </g>
        <g transform="matrix(0,4.16667,4.25741,0,374.018,106.717)">
            <path d="M-10.923,-10.923L10.923,-10.923" style="fill:none;fill-rule:nonzero;stroke:rgb(137,163,46);stroke-width:2.28px;"/>
        </g>
        <g transform="matrix(0,4.16667,4.25741,0,360.24,106.718)">
            <path d="M-18.745,-18.745L18.745,-18.745" style="fill:none;fill-rule:nonzero;stroke:rgb(137,163,46);stroke-width:2.28px;"/>
        </g>
        <g transform="matrix(4.25741,0,0,4.16667,137.789,82.2938)">
            <path d="M0,-18.07L0,0.539L22.925,0.539L22.925,-18.609" style="fill:none;fill-rule:nonzero;stroke:rgb(137,163,46);stroke-width:2.28px;stroke-linejoin:round;"/>
        </g>
        <g transform="matrix(0,-4.16667,-4.25741,0,225.323,216.884)">
            <path d="M2.427,20.498L21.036,20.498L17.26,8.999L21.036,-2.427L1.888,-2.427" style="fill:none;fill-rule:nonzero;stroke:rgb(137,163,46);stroke-width:2.28px;stroke-linejoin:round;"/>
        </g>
        <g transform="matrix(4.25741,0,0,4.16667,8.2679,94.6538)">
            <path d="M0,3.884C1.072,3.884 1.942,3.014 1.942,1.942C1.942,0.87 1.072,0 0,0C-1.072,0 -1.942,0.87 -1.942,1.942C-1.942,3.014 -1.072,3.884 0,3.884" style="fill:rgb(137,163,46);fill-rule:nonzero;"/>
        </g>
        <g transform="matrix(4.25741,0,0,4.16667,359.627,94.6538)">
            <path d="M0,3.884C1.072,3.884 1.942,3.014 1.942,1.942C1.942,0.87 1.072,0 0,0C-1.072,0 -1.942,0.87 -1.942,1.942C-1.942,3.014 -1.072,3.884 0,3.884" style="fill:rgb(137,163,46);fill-rule:nonzero;"/>
        </g>
        <g transform="matrix(4.25741,0,0,4.16667,-127.722,-686.972)">
            <g transform="matrix(29.2588,0,0,29.2588,122.948,189.114)">
                <path d="M0.09,-0L0.09,-0.723L0.241,-0.723L0.241,-0.429L0.54,-0.429L0.54,-0.723L0.69,-0.723L0.69,-0L0.54,-0L0.54,-0.33L0.241,-0.33L0.241,-0L0.09,-0Z" style="fill:rgb(35,31,32);fill-rule:nonzero;"/>
            </g>
            <g transform="matrix(29.2588,0,0,29.2588,147.058,189.114)">
                <path d="M0.011,-0L0.292,-0.723L0.443,-0.723L0.724,-0L0.57,-0L0.495,-0.193L0.196,-0.193L0.121,-0L0.011,-0ZM0.233,-0.289L0.458,-0.289L0.345,-0.577L0.233,-0.289Z" style="fill:rgb(35,31,32);fill-rule:nonzero;"/>
            </g>
            <g transform="matrix(29.2588,0,0,29.2588,169.882,189.114)">
                <path d="M0.09,-0L0.09,-0.723L0.361,-0.723C0.508,-0.723 0.581,-0.663 0.581,-0.543C0.581,-0.499 0.569,-0.458 0.544,-0.422C0.519,-0.385 0.485,-0.357 0.441,-0.337L0.677,-0L0.494,-0L0.315,-0.295L0.232,-0.295L0.232,-0L0.09,-0ZM0.232,-0.395L0.267,-0.395C0.376,-0.395 0.43,-0.439 0.43,-0.527C0.43,-0.591 0.382,-0.624 0.284,-0.624L0.232,-0.624L0.232,-0.395Z" style="fill:rgb(35,31,32);fill-rule:nonzero;"/>
            </g>
            <g transform="matrix(29.2588,0,0,29.2588,191.348,189.114)">
                <path d="M0.09,-0L0.09,-0.723L0.401,-0.723C0.513,-0.723 0.599,-0.693 0.659,-0.634C0.718,-0.574 0.748,-0.488 0.748,-0.376C0.748,-0.257 0.716,-0.165 0.653,-0.099C0.59,-0.033 0.502,-0 0.388,-0L0.09,-0ZM0.241,-0.103L0.353,-0.103C0.432,-0.103 0.491,-0.124 0.53,-0.168C0.569,-0.212 0.588,-0.278 0.588,-0.368C0.588,-0.437 0.573,-0.494 0.542,-0.54C0.52,-0.572 0.494,-0.593 0.464,-0.605C0.434,-0.618 0.389,-0.624 0.332,-0.624L0.241,-0.624L0.241,-0.103Z" style="fill:rgb(35,31,32);fill-rule:nonzero;"/>
            </g>
            <g transform="matrix(29.2588,0,0,29.2588,215.829,189.114)">
                <path d="M0.011,-0L0.292,-0.723L0.443,-0.723L0.724,-0L0.57,-0L0.495,-0.193L0.196,-0.193L0.121,-0L0.011,-0ZM0.233,-0.289L0.458,-0.289L0.345,-0.577L0.233,-0.289Z" style="fill:rgb(35,31,32);fill-rule:nonzero;"/>
            </g>
            <g transform="matrix(29.2588,0,0,29.2588,238.653,189.114)">
                <path d="M0.09,-0L0.09,-0.723L0.223,-0.723L0.558,-0.229L0.558,-0.723L0.678,-0.723L0.678,-0L0.543,-0L0.211,-0.494L0.211,-0L0.09,-0Z" style="fill:rgb(35,31,32);fill-rule:nonzero;"/>
            </g>
            <g transform="matrix(29.2588,0,0,29.2588,262.42,189.114)">
                <path d="M0.667,-0.017C0.577,0.006 0.499,0.018 0.433,0.018C0.308,0.018 0.213,-0.015 0.146,-0.08C0.079,-0.146 0.045,-0.24 0.045,-0.362C0.045,-0.484 0.079,-0.577 0.146,-0.643C0.213,-0.708 0.308,-0.741 0.432,-0.741C0.511,-0.741 0.589,-0.731 0.667,-0.713L0.667,-0.595C0.577,-0.626 0.503,-0.642 0.445,-0.642C0.368,-0.642 0.309,-0.617 0.268,-0.568C0.226,-0.52 0.205,-0.45 0.205,-0.361C0.205,-0.274 0.227,-0.206 0.272,-0.157C0.317,-0.108 0.378,-0.083 0.457,-0.083C0.474,-0.083 0.494,-0.085 0.517,-0.09L0.517,-0.328L0.667,-0.328L0.667,-0.017Z" style="fill:rgb(35,31,32);fill-rule:nonzero;"/>
            </g>
            <g transform="matrix(29.2588,0,0,29.2588,285.515,189.114)">
                <path d="M0.09,-0L0.09,-0.723L0.542,-0.723L0.542,-0.624L0.241,-0.624L0.241,-0.422L0.488,-0.422L0.488,-0.325L0.241,-0.325L0.241,-0.103L0.565,-0.103L0.565,-0L0.09,-0Z" style="fill:rgb(35,31,32);fill-rule:nonzero;"/>
            </g>
            <g transform="matrix(29.2588,0,0,29.2588,304.367,189.114)">
                <path d="M0.09,-0L0.09,-0.723L0.361,-0.723C0.508,-0.723 0.581,-0.663 0.581,-0.543C0.581,-0.499 0.569,-0.458 0.544,-0.422C0.519,-0.385 0.485,-0.357 0.441,-0.337L0.677,-0L0.494,-0L0.315,-0.295L0.232,-0.295L0.232,-0L0.09,-0ZM0.232,-0.395L0.267,-0.395C0.376,-0.395 0.43,-0.439 0.43,-0.527C0.43,-0.591 0.382,-0.624 0.284,-0.624L0.232,-0.624L0.232,-0.395Z" style="fill:rgb(35,31,32);fill-rule:nonzero;"/>
            </g>
            <g transform="matrix(29.2588,0,0,29.2588,325.834,189.114)">
                <path d="M0.09,-0L0.09,-0.723L0.545,-0.723L0.545,-0.624L0.241,-0.624L0.241,-0.404L0.491,-0.404L0.491,-0.304L0.241,-0.304L0.241,-0L0.09,-0Z" style="fill:rgb(35,31,32);fill-rule:nonzero;"/>
            </g>
            <g transform="matrix(29.2588,0,0,29.2588,343.915,189.114)">
                <path d="M-0.033,0.127L-0.034,0.02C0.005,0.035 0.045,0.042 0.086,0.042C0.121,0.042 0.145,0.033 0.158,0.014C0.171,-0.006 0.177,-0.04 0.177,-0.09L0.177,-0.723L0.328,-0.723L0.328,-0.106C0.328,-0.017 0.31,0.047 0.274,0.086C0.238,0.125 0.179,0.145 0.097,0.145C0.056,0.145 0.012,0.139 -0.033,0.127Z" style="fill:rgb(35,31,32);fill-rule:nonzero;"/>
            </g>
            <g transform="matrix(29.2588,0,0,29.2588,357.438,189.114)">
                <path d="M0.407,0.018C0.298,0.018 0.21,-0.016 0.144,-0.085C0.078,-0.154 0.045,-0.246 0.045,-0.361C0.045,-0.478 0.078,-0.57 0.145,-0.638C0.211,-0.707 0.3,-0.741 0.412,-0.741C0.524,-0.741 0.613,-0.707 0.679,-0.638C0.745,-0.57 0.778,-0.478 0.778,-0.363C0.778,-0.245 0.745,-0.152 0.679,-0.084C0.613,-0.016 0.522,0.018 0.407,0.018ZM0.409,-0.082C0.474,-0.082 0.525,-0.107 0.562,-0.157C0.6,-0.208 0.619,-0.277 0.619,-0.363C0.619,-0.447 0.6,-0.515 0.562,-0.565C0.524,-0.616 0.474,-0.642 0.412,-0.642C0.349,-0.642 0.299,-0.616 0.261,-0.565C0.224,-0.515 0.205,-0.447 0.205,-0.362C0.205,-0.278 0.224,-0.21 0.261,-0.158C0.299,-0.107 0.348,-0.082 0.409,-0.082Z" style="fill:rgb(35,31,32);fill-rule:nonzero;"/>
            </g>
            <g transform="matrix(29.2588,0,0,29.2588,382.805,189.114)">
                <path d="M0.09,-0L0.09,-0.723L0.361,-0.723C0.508,-0.723 0.581,-0.663 0.581,-0.543C0.581,-0.499 0.569,-0.458 0.544,-0.422C0.519,-0.385 0.485,-0.357 0.441,-0.337L0.677,-0L0.494,-0L0.315,-0.295L0.232,-0.295L0.232,-0L0.09,-0ZM0.232,-0.395L0.267,-0.395C0.376,-0.395 0.43,-0.439 0.43,-0.527C0.43,-0.591 0.382,-0.624 0.284,-0.624L0.232,-0.624L0.232,-0.395Z" style="fill:rgb(35,31,32);fill-rule:nonzero;"/>
            </g>
            <g transform="matrix(29.2588,0,0,29.2588,404.271,189.114)">
                <path d="M0.09,-0L0.09,-0.723L0.401,-0.723C0.513,-0.723 0.599,-0.693 0.659,-0.634C0.718,-0.574 0.748,-0.488 0.748,-0.376C0.748,-0.257 0.716,-0.165 0.653,-0.099C0.59,-0.033 0.502,-0 0.388,-0L0.09,-0ZM0.241,-0.103L0.353,-0.103C0.432,-0.103 0.491,-0.124 0.53,-0.168C0.569,-0.212 0.588,-0.278 0.588,-0.368C0.588,-0.437 0.573,-0.494 0.542,-0.54C0.52,-0.572 0.494,-0.593 0.464,-0.605C0.434,-0.618 0.389,-0.624 0.332,-0.624L0.241,-0.624L0.241,-0.103Z" style="fill:rgb(35,31,32);fill-rule:nonzero;"/>
            </g>
            <g transform="matrix(17.966,0,0,17.966,123.999,209.88)">
                <path d="M0.09,-0L0.09,-0.723L0.29,-0.723L0.463,-0.214L0.643,-0.723L0.817,-0.723L0.817,-0L0.679,-0L0.679,-0.545L0.502,-0.048L0.381,-0.048L0.208,-0.553L0.208,-0L0.09,-0Z" style="fill:rgb(35,31,32);fill-rule:nonzero;"/>
            </g>
            <g transform="matrix(17.966,0,0,17.966,140.774,209.88)">
                <path d="M0.011,-0L0.292,-0.723L0.443,-0.723L0.724,-0L0.57,-0L0.495,-0.193L0.196,-0.193L0.121,-0L0.011,-0ZM0.233,-0.289L0.458,-0.289L0.345,-0.577L0.233,-0.289Z" style="fill:rgb(35,31,32);fill-rule:nonzero;"/>
            </g>
            <g transform="matrix(17.966,0,0,17.966,154.471,209.88)">
                <path d="M0.667,-0.017C0.577,0.006 0.499,0.018 0.433,0.018C0.308,0.018 0.213,-0.015 0.146,-0.08C0.079,-0.146 0.045,-0.24 0.045,-0.362C0.045,-0.484 0.079,-0.577 0.146,-0.643C0.213,-0.708 0.308,-0.741 0.432,-0.741C0.511,-0.741 0.589,-0.731 0.667,-0.713L0.667,-0.595C0.577,-0.626 0.503,-0.642 0.445,-0.642C0.368,-0.642 0.309,-0.617 0.268,-0.568C0.226,-0.52 0.205,-0.45 0.205,-0.361C0.205,-0.274 0.227,-0.206 0.272,-0.157C0.317,-0.108 0.378,-0.083 0.457,-0.083C0.474,-0.083 0.494,-0.085 0.517,-0.09L0.517,-0.328L0.667,-0.328L0.667,-0.017Z" style="fill:rgb(35,31,32);fill-rule:nonzero;"/>
            </g>
            <g transform="matrix(17.966,0,0,17.966,168.333,209.88)">
                <path d="M0.011,-0L0.292,-0.723L0.443,-0.723L0.724,-0L0.57,-0L0.495,-0.193L0.196,-0.193L0.121,-0L0.011,-0ZM0.233,-0.289L0.458,-0.289L0.345,-0.577L0.233,-0.289Z" style="fill:rgb(35,31,32);fill-rule:nonzero;"/>
            </g>
            <g transform="matrix(17.966,0,0,17.966,182.029,209.88)">
                <path d="M0.05,-0.006L0.05,-0.13C0.128,-0.098 0.194,-0.082 0.25,-0.082C0.288,-0.082 0.319,-0.09 0.341,-0.107C0.363,-0.125 0.375,-0.148 0.375,-0.178C0.375,-0.201 0.368,-0.221 0.354,-0.237C0.34,-0.253 0.313,-0.272 0.274,-0.294L0.226,-0.321C0.161,-0.358 0.115,-0.393 0.088,-0.426C0.062,-0.459 0.048,-0.498 0.048,-0.543C0.048,-0.603 0.07,-0.65 0.114,-0.687C0.158,-0.723 0.216,-0.741 0.288,-0.741C0.345,-0.741 0.41,-0.732 0.482,-0.716L0.482,-0.6C0.409,-0.628 0.35,-0.642 0.307,-0.642C0.274,-0.642 0.247,-0.634 0.227,-0.619C0.207,-0.605 0.197,-0.585 0.197,-0.561C0.197,-0.541 0.204,-0.524 0.218,-0.509C0.232,-0.494 0.259,-0.475 0.297,-0.454L0.349,-0.425C0.419,-0.386 0.467,-0.35 0.493,-0.317C0.52,-0.284 0.533,-0.244 0.533,-0.197C0.533,-0.13 0.508,-0.077 0.458,-0.039C0.408,-0.001 0.34,0.018 0.252,0.018C0.194,0.018 0.127,0.01 0.05,-0.006Z" style="fill:rgb(35,31,32);fill-rule:nonzero;"/>
            </g>
            <g transform="matrix(17.966,0,0,17.966,192.76,209.88)">
                <rect x="0.09" y="-0.723" width="0.15" height="0.723" style="fill:rgb(35,31,32);fill-rule:nonzero;"/>
            </g>
            <g transform="matrix(17.966,0,0,17.966,199.184,209.88)">
                <path d="M0.09,-0L0.09,-0.723L0.223,-0.723L0.558,-0.229L0.558,-0.723L0.678,-0.723L0.678,-0L0.543,-0L0.211,-0.494L0.211,-0L0.09,-0Z" style="fill:rgb(35,31,32);fill-rule:nonzero;"/>
            </g>
            <g transform="matrix(17.966,0,0,17.966,213.459,209.88)">
                <path d="M0.09,-0L0.09,-0.723L0.542,-0.723L0.542,-0.624L0.241,-0.624L0.241,-0.422L0.488,-0.422L0.488,-0.325L0.241,-0.325L0.241,-0.103L0.565,-0.103L0.565,-0L0.09,-0Z" style="fill:rgb(35,31,32);fill-rule:nonzero;"/>
            </g>
            <g transform="matrix(17.966,0,0,17.966,224.717,209.88)">
                <path d="M0.27,-0L0.27,-0.624L0.011,-0.624L0.011,-0.723L0.679,-0.723L0.679,-0.624L0.42,-0.624L0.42,-0L0.27,-0Z" style="fill:rgb(35,31,32);fill-rule:nonzero;"/>
            </g>
        </g>
    </g>
</svg>
