<svg xmlns="http://www.w3.org/2000/svg" width="321.694" height="48.66" viewBox="0 0 321.694 48.66"><defs><style>.a{fill:#ef3e33;}.b{fill:#d1d3d4;}.c{fill:#231f20;}</style></defs><g transform="translate(-247.52 -194.79)"><path class="a" d="M248.22,195.52s-.07,15.27,3.72,27.3a37,37,0,0,0,14.85,19.82,37,37,0,0,0,14.85-19.82c3.8-12,3.72-27.3,3.72-27.3Z"/><path class="a" d="M266.79,243.45l-.35-.21A37.32,37.32,0,0,1,251.27,223c-3.78-12-3.75-27.36-3.75-27.52v-.69h38.54v.69c0,.16,0,15.52-3.75,27.52a37.32,37.32,0,0,1-15.17,20.21Zm-17.86-47.23c0,3.12.42,16.05,3.68,26.39a37,37,0,0,0,14.18,19.2A37,37,0,0,0,281,222.61c3.26-10.34,3.64-23.27,3.69-26.39Z"/><path class="b" d="M265.71,205v.09a4.12,4.12,0,0,0-3.14-1.47,4.32,4.32,0,0,0,0,8.63,4.159,4.159,0,0,0,1.5-.28,4.36,4.36,0,0,0-1.37,3.19,4.18,4.18,0,1,0,8.35,0,4.36,4.36,0,0,0-1.24-3.07,3.86,3.86,0,0,0,1.13.16,4.32,4.32,0,0,0,0-8.63,4.1,4.1,0,0,0-3.09,1.41h0c0-3.34,1.94-5,4.88-5,6.44,0,8.27,6.39,8.38,12.22.29,10.31-8.12,18.13-14.3,21.7-6.22-3.57-14.55-11.39-14.29-21.7.15-5.83,1.9-12.22,8.34-12.22,3,0,4.87,1.62,4.87,5Z"/><path class="c" d="M340.49,210.43,338,213.76a10.69,10.69,0,0,1,2.1,6.84v2.68c0,6.08-3.37,9.95-9.57,9.95a10.17,10.17,0,0,1-5.73-1.53l-1.61,2.14c-.27.34-.38.38-.61.38h-1.92c-.23,0-.3-.11-.3-.3a.72.72,0,0,1,.15-.42l2.53-3.41a10.53,10.53,0,0,1-2.11-6.81V220.6c0-6.08,3.41-9.94,9.6-9.94a10.19,10.19,0,0,1,5.74,1.53l1.53-2.11c.27-.34.39-.38.62-.38h1.91c.23,0,.3.12.3.31A.62.62,0,0,1,340.49,210.43Zm-8.56,5.76a4.27,4.27,0,0,0-1.39-.25c-2.21,0-3.44,1.56-3.44,4.66v2.68a12.113,12.113,0,0,0,.08,1.23L336,212.6c-.18-.14-3.89,3.63-4.07,3.59Zm2,4.41a11.712,11.712,0,0,0-.08-1.22l-8.47,11.46c.1.1,3.27-3,3.7-3a12.9,12.9,0,0,0,1.44.17c2.22,0,3.41-1.61,3.41-4.71Z"/><path class="c" d="M306.93,233.22a48.181,48.181,0,0,1-7-.46c-1.53-.27-2.1-.76-2.1-2.49V207c0-1.72.53-2.25,2-2.48a59.812,59.812,0,0,1,6.85-.42c7.23,0,12.09,1.91,12.09,8v.69a6.06,6.06,0,0,1-3.21,5.63,6.09,6.09,0,0,1,3.4,5.66v.57C319,231.38,313.55,233.22,306.93,233.22Zm5.55-20.7c0-2.1-1.34-3.06-5.28-3.06h-2.91v6.62h4.29c3,0,3.9-1.38,3.9-3Zm.15,11.56c0-1.84-1-3.41-4.05-3.41h-4.29v7.16h3.14c3.94,0,5.2-1.22,5.2-3.36Z"/><path class="c" d="M370.41,232.88h-4.63a.81.81,0,0,1-.76-.81V219c0-2.45-.57-3.18-2.33-3.18a7.34,7.34,0,0,0-2.95.69,24.734,24.734,0,0,1,.12,2.49v13a.81.81,0,0,1-.77.81h-4.63a.84.84,0,0,1-.8-.81V219c0-2.45-.46-3.18-2.22-3.18a7.14,7.14,0,0,0-2.91,1v15.22a.8.8,0,0,1-.76.81h-4.63a.85.85,0,0,1-.81-.81V211.72a.78.78,0,0,1,.77-.77h4.36a.78.78,0,0,1,.77.77v.84a10,10,0,0,1,5.66-1.91,5.36,5.36,0,0,1,4.51,1.87,11.25,11.25,0,0,1,6.24-1.87c5.05,0,6.58,3.37,6.58,8.38v13A.85.85,0,0,1,370.41,232.88Z"/><path class="c" d="M379.66,232.88H375a.84.84,0,0,1-.8-.81V204.3a.8.8,0,0,1,.8-.77h4.67a.74.74,0,0,1,.73.77v27.77A.78.78,0,0,1,379.66,232.88Z"/><path class="c" d="M392.35,233.22c-6.2,0-9.6-3.86-9.6-9.95V220.6c0-6.09,3.4-9.95,9.6-9.95s9.57,3.86,9.57,9.95v2.67C401.92,229.36,398.55,233.22,392.35,233.22Zm3.4-12.62c0-3.1-1.18-4.67-3.4-4.67s-3.44,1.57-3.44,4.67v2.67c0,3.1,1.22,4.71,3.44,4.71s3.4-1.61,3.4-4.71Z"/><path class="c" d="M427.56,232.53h-2.72c-.41,0-.56-.12-.86-.49l-7.5-9.27v9a.76.76,0,0,1-.75.76h-1.81a.76.76,0,0,1-.76-.76V205a.76.76,0,0,1,.76-.76h1.81a.76.76,0,0,1,.75.76v15.67l7.54-8.48a.8.8,0,0,1,.75-.33h2.64c.37,0,.56.18.56.41a.56.56,0,0,1-.19.41l-8.29,9,8.37,10.1a.53.53,0,0,1,.11.34.44.44,0,0,1-.41.41Z"/><path class="c" d="M438.33,232.79c-5.54,0-8.36-3.65-8.36-9.19v-2.87c0-5.53,2.82-9.19,8.36-9.19s8.4,3.66,8.4,9.19v2.87C446.73,229.14,443.87,232.79,438.33,232.79Zm5.09-12.06c0-3.84-1.55-6.29-5.09-6.29s-5.05,2.41-5.05,6.29v2.87c0,3.84,1.51,6.29,5.05,6.29s5.09-2.41,5.09-6.29Z"/><path class="c" d="M475.37,232.53h-1.81a.76.76,0,0,1-.76-.76V218.44c0-3.17-1.47-4-3.42-4a13.191,13.191,0,0,0-4.41,1,11.529,11.529,0,0,1,.34,2.94v13.41a.73.73,0,0,1-.68.76h-2a.69.69,0,0,1-.64-.76V218.36c0-3.28-.94-4-2.9-4a11.46,11.46,0,0,0-4.6,1.47v15.9a.72.72,0,0,1-.67.76h-2a.69.69,0,0,1-.64-.76V212.56a.72.72,0,0,1,.71-.75h1.89a.72.72,0,0,1,.71.75v.71a10.62,10.62,0,0,1,5.5-1.77,4.6,4.6,0,0,1,3.77,1.55A15.14,15.14,0,0,1,470,211.5c3.39,0,6.1,1.7,6.1,6.94v13.33a.76.76,0,0,1-.73.76Z"/><path class="c" d="M505.43,232.53h-1.81a.76.76,0,0,1-.75-.76V218.44c0-3.17-1.47-4-3.43-4a13.191,13.191,0,0,0-4.41,1,11.1,11.1,0,0,1,.34,2.94v13.41a.72.72,0,0,1-.68.76h-2a.7.7,0,0,1-.65-.76V218.36c0-3.28-.94-4-2.9-4a11.42,11.42,0,0,0-4.59,1.47v15.9a.73.73,0,0,1-.68.76h-2a.7.7,0,0,1-.64-.76V212.56a.72.72,0,0,1,.72-.75h1.88a.72.72,0,0,1,.72.75v.71a10.59,10.59,0,0,1,5.5-1.77,4.58,4.58,0,0,1,3.76,1.55,15.18,15.18,0,0,1,6.26-1.55c3.39,0,6.1,1.7,6.1,6.94v13.33a.76.76,0,0,1-.74.76Z"/><path class="c" d="M526.45,232.53h-1.88a.73.73,0,0,1-.72-.76v-.71a11.33,11.33,0,0,1-6,1.73c-4.52,0-6.55-2.83-6.55-7.84V212.56a.74.74,0,0,1,.75-.75h1.81a.75.75,0,0,1,.75.75V225c0,3.81,1.28,5,4.15,5a12,12,0,0,0,5.08-1.47v-15.9a.78.78,0,0,1,.76-.75h1.84a.74.74,0,0,1,.72.75v19.21a.73.73,0,0,1-.71.69Z"/><path class="c" d="M547.4,232.53h-1.81a.76.76,0,0,1-.75-.76V219.38c0-3.81-1.29-5-4.15-5a12,12,0,0,0-5.08,1.47v15.9a.79.79,0,0,1-.76.76H533a.75.75,0,0,1-.72-.76V212.56a.72.72,0,0,1,.72-.75h1.88a.72.72,0,0,1,.72.75v.71a11.39,11.39,0,0,1,6-1.73c4.52,0,6.55,2.83,6.55,7.84v12.39a.76.76,0,0,1-.75.76Z"/><path class="c" d="M568.53,223.22H555.91v.53c0,4.48,1.77,6.14,5.24,6.14a50.677,50.677,0,0,0,6.71-.42H568c.31,0,.61.15.61.53v1.28c0,.49-.15.76-.76.87a34.442,34.442,0,0,1-6.74.64c-4.33,0-8.55-2-8.55-9V220.4c0-5.39,3-8.82,8.36-8.82s8.29,3.47,8.29,8.82v2A.672.672,0,0,1,568.53,223.22Zm-2.64-2.86c0-4.26-1.61-5.92-4.93-5.92s-5.05,1.85-5.05,5.92v.34h10Z"/></g></svg>