<?xml version="1.0" encoding="UTF-8" standalone="no"?>
<!-- Created with Inkscape (http://www.inkscape.org/) -->

<svg
   xmlns:dc="http://purl.org/dc/elements/1.1/"
   xmlns:cc="http://creativecommons.org/ns#"
   xmlns:rdf="http://www.w3.org/1999/02/22-rdf-syntax-ns#"
   xmlns:svg="http://www.w3.org/2000/svg"
   xmlns="http://www.w3.org/2000/svg"
   xmlns:sodipodi="http://sodipodi.sourceforge.net/DTD/sodipodi-0.dtd"
   xmlns:inkscape="http://www.inkscape.org/namespaces/inkscape"
   width="305.11938"
   height="80.800003"
   id="svg2"
   version="1.1"
   inkscape:version="0.48.5 r10040"
   sodipodi:docname="New document 1">
  <defs
     id="defs4" />
  <sodipodi:namedview
     id="base"
     pagecolor="#ffffff"
     bordercolor="#666666"
     borderopacity="1.0"
     inkscape:pageopacity="0.0"
     inkscape:pageshadow="2"
     inkscape:zoom="0.35"
     inkscape:cx="256.13113"
     inkscape:cy="34.685717"
     inkscape:document-units="px"
     inkscape:current-layer="layer1"
     showgrid="false"
     fit-margin-top="0"
     fit-margin-left="0"
     fit-margin-right="0"
     fit-margin-bottom="0"
     inkscape:window-width="1920"
     inkscape:window-height="1027"
     inkscape:window-x="-8"
     inkscape:window-y="-8"
     inkscape:window-maximized="1" />
  <metadata
     id="metadata7">
    <rdf:RDF>
      <cc:Work
         rdf:about="">
        <dc:format>image/svg+xml</dc:format>
        <dc:type
           rdf:resource="http://purl.org/dc/dcmitype/StillImage" />
        <dc:title></dc:title>
      </cc:Work>
    </rdf:RDF>
  </metadata>
  <g
     inkscape:label="Layer 1"
     inkscape:groupmode="layer"
     id="layer1"
     transform="translate(-118.86887,-486.2479)">
    <g
       id="g2986"
       transform="translate(118.86887,486.2479)">
	<g
   id="g2988">
		<path
   id="path2990"
   d="m 143.9,59.8 c 0,-0.9 -0.2,-1.4 -0.7,-1.6 -0.4,-0.2 -1,-0.3 -1.7,-0.3 -1.4,0 -2.6,0.3 -3.8,0.8 -1.1,0.5 -1.7,1.2 -1.7,2 0,0.5 0.2,1 0.7,1.4 0.5,0.4 1.6,0.9 3.3,1.3 1.6,0.5 2.8,1 3.5,1.5 0.7,0.5 1,1.1 1,1.8 0,0.7 -0.5,1.5 -1.4,2.3 -1,0.8 -2.1,1.5 -3.5,1.9 -1.4,0.4 -2.5,0.6 -3.4,0.6 -0.8,0 -1.4,-0.1 -1.8,-0.3 -0.4,-0.2 -0.6,-0.4 -0.6,-0.7 0,-0.2 0.1,-0.4 0.2,-0.7 0.1,-0.3 0.2,-0.4 0.4,-0.4 0.1,0 0.3,0 0.4,0.1 0.7,0.3 1.4,0.4 2.1,0.4 1.2,0 2.5,-0.4 3.9,-1.1 1.4,-0.7 2.1,-1.4 2.1,-2 0,-0.3 -0.2,-0.5 -0.6,-0.8 -0.4,-0.3 -1.5,-0.6 -3.2,-1.2 -2.1,-0.7 -3.4,-1.3 -3.9,-2 -0.5,-0.7 -0.7,-1.3 -0.7,-2 0,-1.4 0.8,-2.4 2.3,-3.3 1.5,-0.9 3.2,-1.2 4.9,-1.2 1.1,0 2,0.2 2.6,0.6 0.6,0.4 0.9,0.8 0.9,1.3 0,0.2 -0.1,0.5 -0.2,1 -0.2,0.4 -0.6,0.6 -1.1,0.6 z"
   inkscape:connector-curvature="0"
   style="fill:#ffffff" />

		<path
   id="path2992"
   d="m 148.9,70.8 c 0,-0.4 -0.3,-1.4 -0.8,-2.9 -1.1,-2.9 -1.6,-5 -1.6,-6.1 0,-0.9 0.3,-1.4 0.9,-1.4 0.6,0 0.9,0.4 0.9,1.2 0,0.7 0,1.2 0.1,1.5 0.1,0.3 0.2,1 0.5,2 0.3,1 0.6,1.9 0.9,2.7 0.2,0.4 0.3,0.8 0.4,1 0.1,-0.2 0.3,-0.5 0.5,-0.9 1.1,-1.9 2.1,-3.4 2.7,-4.5 0.7,-1 1.2,-1.8 1.7,-2.3 0.4,-0.5 0.7,-0.8 0.9,-0.9 0.2,-0.1 0.4,-0.1 0.6,-0.1 0.3,0 0.5,0.1 0.6,0.3 0.1,0.2 0.2,0.4 0.2,0.6 0,0.3 -0.3,0.6 -0.8,1 -0.5,0.3 -1.2,1.2 -2.2,2.5 -1,1.4 -2,3.1 -3.2,5.2 -0.6,1.1 -1,1.6 -1.3,1.6 -0.4,0.1 -0.7,-0.1 -1,-0.5 z"
   inkscape:connector-curvature="0"
   style="fill:#ffffff" />

		<path
   id="path2994"
   d="m 166.3,67.4 c 0,0.7 -0.6,1.5 -1.8,2.4 -1.2,0.9 -2.4,1.4 -3.6,1.4 -1,0 -1.9,-0.3 -2.4,-0.9 -0.6,-0.6 -0.9,-1.5 -0.9,-2.6 0,-1.9 0.6,-3.6 1.9,-5.3 1.3,-1.7 2.6,-2.5 4.1,-2.5 0.5,0 0.9,0.2 1.2,0.5 0.3,0.3 0.5,0.7 0.5,1.2 0,1 -0.5,2 -1.5,2.9 -1,0.9 -2.3,1.8 -3.9,2.7 -0.3,0.2 -0.5,0.4 -0.5,0.7 0,0.5 0.2,1 0.5,1.3 0.3,0.3 0.8,0.5 1.4,0.5 1.4,0 2.8,-0.8 4.3,-2.3 0.2,-0.2 0.4,-0.3 0.5,-0.3 0.1,-0.2 0.2,-0.1 0.2,0.3 z m -6.8,-1.6 c 2.8,-1.6 4.1,-3 4.1,-4 0,-0.4 -0.2,-0.6 -0.5,-0.6 -0.6,0 -1.3,0.4 -2,1.3 -0.7,0.9 -1.3,2.1 -1.6,3.3 z"
   inkscape:connector-curvature="0"
   style="fill:#ffffff" />

		<path
   id="path2996"
   d="m 170.2,68.5 c 0,0.5 0.1,1.1 0.2,1.7 0,0.1 0,0.2 0,0.3 0,0.1 -0.1,0.3 -0.3,0.5 -0.2,0.2 -0.4,0.3 -0.7,0.3 -0.6,0 -0.9,-0.6 -0.9,-1.7 0,-1.2 0.2,-3.1 0.7,-5.7 0.2,-0.9 0.3,-1.5 0.3,-1.7 0,-0.4 0.1,-0.8 0.2,-1 0.1,-0.3 0.4,-0.4 0.6,-0.4 0.3,0 0.6,0.1 0.8,0.2 0.2,0.2 0.3,0.3 0.3,0.5 0,0.2 0,0.5 -0.1,0.8 -0.5,1.7 -0.8,2.9 -0.9,3.7 -0.1,0.8 -0.2,1.5 -0.2,2.5 z m 1.3,-10.9 c -0.1,0 -0.2,-0.1 -0.3,-0.4 0,-0.1 -0.1,-0.2 -0.1,-0.3 -0.2,-0.4 -0.3,-0.8 -0.3,-1.1 0,-0.3 0.2,-0.5 0.5,-0.8 0.3,-0.3 0.7,-0.4 1,-0.4 0.2,0 0.4,0.1 0.6,0.2 0.2,0.1 0.4,0.3 0.4,0.4 0,0.2 -0.1,0.6 -0.2,1.1 -0.2,0.5 -0.4,0.9 -0.8,1 -0.4,0.2 -0.6,0.3 -0.8,0.3 z"
   inkscape:connector-curvature="0"
   style="fill:#ffffff" />

		<path
   id="path2998"
   d="m 177,71.2 c -0.9,0 -1.6,-0.3 -2.2,-1 -0.6,-0.7 -0.9,-1.5 -0.9,-2.5 0,-1.7 0.6,-3.3 1.7,-5 1.1,-1.6 2.5,-2.4 4.1,-2.4 1,0 1.9,0.4 2.5,1.2 0.6,0.8 1,1.8 1,2.9 0,1.7 -0.7,3.3 -2,4.7 -1.3,1.4 -2.8,2.1 -4.2,2.1 z m -1.4,-3.8 c 0,0.7 0.1,1.2 0.4,1.6 0.3,0.4 0.6,0.6 1.1,0.6 1,0 1.9,-0.5 2.9,-1.6 1,-1.1 1.5,-2.2 1.5,-3.5 0,-0.8 -0.2,-1.5 -0.6,-1.9 -0.4,-0.4 -0.9,-0.7 -1.5,-0.7 -1,0 -1.9,0.6 -2.7,1.9 -0.7,1.2 -1.1,2.4 -1.1,3.6 z"
   inkscape:connector-curvature="0"
   style="fill:#ffffff" />

		<path
   id="path3000"
   d="m 185.6,72.5 c 1.2,-0.3 2,-0.7 2.3,-1.3 0.3,-0.6 0.5,-0.9 0.5,-1.2 0,-0.7 -0.1,-1.1 -0.3,-1.4 -0.1,-0.1 -0.1,-0.2 -0.1,-0.4 0,-0.1 0,-0.2 0.1,-0.4 0.1,-0.2 0.2,-0.3 0.3,-0.3 0.1,0 0.4,0 0.6,0.2 0.3,0.1 0.5,0.2 0.5,0.3 0.1,0.1 0.1,0.3 0.3,0.7 0.2,0.4 0.2,0.8 0.2,1.1 0,0.1 -0.1,0.5 -0.4,1 -0.3,0.5 -0.6,1 -1,1.3 -0.4,0.3 -0.8,0.5 -1.2,0.6 -0.1,0 -0.3,0.1 -0.4,0.1 -0.5,0.2 -0.9,0.3 -1.3,0.3 -0.2,0 -0.3,-0.2 -0.3,-0.5 0.1,0.1 0.2,0 0.2,-0.1 z"
   inkscape:connector-curvature="0"
   style="fill:#ffffff" />

		<path
   id="path3002"
   d="m 207.6,63 c -0.6,0 -1.9,1.8 -3.9,5.4 -0.7,1.2 -1.1,1.9 -1.2,2 -0.1,0.1 -0.3,0.2 -0.6,0.3 -0.3,0.1 -0.5,0.1 -0.7,0.1 -0.4,0 -0.7,-0.8 -0.7,-2.5 0,-1 0.2,-2.7 0.6,-5.2 0.2,-1 0.3,-1.7 0.3,-2.2 0,-0.4 0.2,-0.6 0.6,-0.6 0.7,0 1.1,0.5 1.1,1.6 0,0.5 -0.1,1.4 -0.4,2.9 -0.3,1.6 -0.4,2.6 -0.4,3 0.4,-0.4 1,-1.2 1.8,-2.6 1.1,-1.8 1.9,-3 2.4,-3.4 0.5,-0.5 1.1,-0.7 1.6,-0.7 0.4,0 0.8,0.3 1,0.8 0.2,0.5 0.4,1.9 0.5,4.1 0,0.5 0.1,0.9 0.1,1.2 0.1,0.3 0.1,0.4 0.2,0.4 0.3,0 1,-1 2,-3.1 0.5,-1.1 1.1,-1.9 1.6,-2.5 0.5,-0.6 1.1,-0.9 1.7,-0.9 0.5,0 0.9,0.3 1.2,0.8 0.2,0.5 0.4,1.3 0.5,2.4 0.1,1.1 0.2,2.1 0.5,3 0.3,0.9 0.6,1.5 1.1,1.7 0.4,0.2 0.6,0.4 0.6,0.6 0,0.2 -0.2,0.5 -0.5,0.7 -0.3,0.2 -0.6,0.4 -0.9,0.4 -0.5,0 -1,-0.3 -1.4,-1 -0.4,-0.6 -0.7,-2 -0.9,-4.1 -0.1,-0.9 -0.2,-1.5 -0.3,-1.8 -0.1,-0.4 -0.2,-0.5 -0.4,-0.5 -0.3,0 -0.6,0.3 -1,0.8 -0.4,0.5 -1,1.6 -1.8,3.2 -0.7,1.2 -1.1,2.1 -1.5,2.5 -0.3,0.4 -0.7,0.6 -1,0.6 -0.3,0 -0.5,-0.1 -0.8,-0.3 -0.3,-0.2 -0.4,-0.5 -0.4,-0.8 -0.1,-0.3 -0.1,-1.1 -0.2,-2.3 0.1,-2.5 -0.1,-3.7 -0.4,-4 z"
   inkscape:connector-curvature="0"
   style="fill:#ffffff" />

		<path
   id="path3004"
   d="m 222.7,68.5 c 0,0.5 0.1,1.1 0.2,1.7 0,0.1 0,0.2 0,0.3 0,0.1 -0.1,0.3 -0.3,0.5 -0.2,0.2 -0.4,0.3 -0.7,0.3 -0.6,0 -0.9,-0.6 -0.9,-1.7 0,-1.2 0.2,-3.1 0.7,-5.7 0.2,-0.9 0.3,-1.5 0.3,-1.7 0,-0.4 0.1,-0.8 0.2,-1 0.1,-0.3 0.4,-0.4 0.6,-0.4 0.3,0 0.6,0.1 0.8,0.2 0.2,0.2 0.3,0.3 0.3,0.5 0,0.2 0,0.5 -0.1,0.8 -0.5,1.7 -0.8,2.9 -0.9,3.7 -0.1,0.8 -0.2,1.5 -0.2,2.5 z M 224,57.6 c -0.1,0 -0.2,-0.1 -0.3,-0.4 0,-0.1 -0.1,-0.2 -0.1,-0.3 -0.2,-0.4 -0.3,-0.8 -0.3,-1.1 0,-0.3 0.2,-0.5 0.5,-0.8 0.3,-0.3 0.7,-0.4 1,-0.4 0.2,0 0.4,0.1 0.6,0.2 0.2,0.1 0.4,0.3 0.4,0.4 0,0.2 -0.1,0.6 -0.2,1.1 -0.2,0.5 -0.4,0.9 -0.8,1 -0.4,0.2 -0.7,0.3 -0.8,0.3 z"
   inkscape:connector-curvature="0"
   style="fill:#ffffff" />

		<path
   id="path3006"
   d="m 233.6,66.6 c -0.9,1.4 -1.8,2.5 -2.8,3.2 -1,0.8 -1.9,1.1 -2.7,1.1 -0.6,0 -1.1,-0.2 -1.5,-0.7 -0.4,-0.5 -0.6,-1.1 -0.6,-1.9 0,-1.6 0.7,-3.3 2,-5.1 1.3,-1.7 2.8,-2.6 4.3,-2.6 0.7,0 1.3,0.3 1.9,0.9 l 1.4,-6.4 c 0.1,-0.4 0.3,-0.7 0.5,-0.9 0.3,-0.2 0.5,-0.2 0.6,-0.2 0.5,0 0.7,0.4 0.7,1.2 0,0.1 -0.1,0.7 -0.4,1.6 -0.5,1.4 -0.9,3.2 -1.4,5.3 -0.4,2.1 -0.6,3.8 -0.6,5 0,1.3 0.3,2 0.8,2 0.4,0 0.7,-0.1 1.1,-0.4 0.2,-0.1 0.3,-0.2 0.5,-0.2 0.2,0 0.3,0.1 0.3,0.4 0,0.3 -0.3,0.7 -0.9,1.2 -0.6,0.4 -1.2,0.7 -1.8,0.7 -1.1,0 -1.6,-1 -1.6,-3.1 0.1,-0.3 0.2,-0.7 0.2,-1.1 z m -1.3,-4.5 c -1.1,0 -2.1,0.7 -3.1,2.1 -1,1.4 -1.6,2.7 -1.6,4 0,0.8 0.3,1.2 0.8,1.2 0.5,0 1.1,-0.3 1.9,-0.8 0.7,-0.5 1.5,-1.4 2.2,-2.6 0.8,-1.2 1.2,-2 1.2,-2.6 0,-0.3 -0.1,-0.6 -0.4,-0.9 -0.3,-0.3 -0.6,-0.4 -1,-0.4 z"
   inkscape:connector-curvature="0"
   style="fill:#ffffff" />

		<path
   id="path3008"
   d="m 243.8,60.8 c 0.7,-0.1 1.3,-0.1 1.9,-0.2 0.6,-0.1 1.1,-0.1 1.5,-0.1 0.5,0 0.8,0 0.9,0.1 0.1,0.1 0.2,0.2 0.2,0.5 0,0.5 -0.4,0.8 -1.1,0.9 -0.9,0.1 -1.8,0.1 -2.6,0.2 -0.8,0.1 -1.2,0.2 -1.3,0.3 -0.1,0.1 -0.3,0.8 -0.6,2.3 -0.3,1.5 -0.5,2.4 -0.5,2.9 0,0.7 0.1,1.2 0.3,1.4 0.2,0.2 0.5,0.4 0.8,0.4 0.6,0 1.3,-0.4 2.3,-1.3 0.4,-0.3 0.7,-0.5 0.9,-0.5 0.3,0 0.4,0.1 0.4,0.4 0,0.5 -0.5,1.1 -1.4,1.8 -0.9,0.7 -1.8,1.1 -2.8,1.1 -1.6,0 -2.4,-0.9 -2.4,-2.8 0,-0.7 0.2,-1.7 0.5,-3.1 0.3,-1.4 0.5,-2.2 0.5,-2.5 0,-0.1 -0.1,-0.1 -0.2,-0.1 l -1,0.1 c -0.8,0 -1.2,-0.3 -1.2,-1 0,-0.4 0.2,-0.6 0.6,-0.6 h 2 c 0.1,0 0.3,-0.1 0.4,-0.2 0.1,-0.1 0.3,-0.5 0.5,-1.2 0.2,-0.7 0.4,-1.4 0.5,-2.1 0.2,-0.7 0.5,-1 0.9,-1 0.3,0 0.5,0.1 0.7,0.3 0.2,0.2 0.2,0.4 0.2,0.5 0,0.1 -0.1,0.6 -0.4,1.4 l -0.5,2.1 z"
   inkscape:connector-curvature="0"
   style="fill:#ffffff" />

		<path
   id="path3010"
   d="m 259.1,68.5 c 0,0.5 0.1,1.1 0.2,1.7 0,0.1 0,0.2 0,0.3 0,0.1 -0.1,0.3 -0.3,0.5 -0.2,0.2 -0.4,0.3 -0.7,0.3 -0.6,0 -0.9,-0.6 -0.9,-1.7 0,-1.2 0.2,-3.1 0.7,-5.7 0.2,-0.9 0.3,-1.5 0.3,-1.7 0,-0.4 0.1,-0.8 0.2,-1 0.1,-0.3 0.4,-0.4 0.6,-0.4 0.3,0 0.6,0.1 0.8,0.2 0.2,0.2 0.3,0.3 0.3,0.5 0,0.2 0,0.5 -0.1,0.8 -0.5,1.7 -0.8,2.9 -0.9,3.7 -0.1,0.8 -0.2,1.5 -0.2,2.5 z m 1.2,-10.9 c -0.1,0 -0.2,-0.1 -0.3,-0.4 0,-0.1 -0.1,-0.2 -0.1,-0.3 -0.2,-0.4 -0.3,-0.8 -0.3,-1.1 0,-0.3 0.2,-0.5 0.5,-0.8 0.3,-0.3 0.7,-0.4 1,-0.4 0.2,0 0.4,0.1 0.6,0.2 0.2,0.1 0.4,0.3 0.4,0.4 0,0.2 -0.1,0.6 -0.2,1.1 -0.2,0.5 -0.4,0.9 -0.8,1 -0.3,0.2 -0.6,0.3 -0.8,0.3 z"
   inkscape:connector-curvature="0"
   style="fill:#ffffff" />

		<path
   id="path3012"
   d="m 274.4,54.2 c 0.5,0 0.7,0.3 0.7,0.9 0,0.5 -0.3,1.8 -0.8,3.8 -0.4,1.3 -0.6,2.7 -0.8,4.2 -0.2,1.5 -0.3,2.7 -0.3,3.6 0,1.1 0.1,2.1 0.2,3.2 0,0.2 0,0.3 0,0.4 0,0.3 -0.1,0.6 -0.3,0.8 -0.2,0.2 -0.5,0.4 -0.7,0.4 -0.3,0 -0.6,-0.2 -0.7,-0.6 -0.1,-0.4 -0.2,-1.1 -0.2,-2.1 0,-2.2 0.3,-4.9 0.8,-8.1 0.5,-3.2 0.9,-5.1 1.2,-5.7 0.3,-0.6 0.6,-0.8 0.9,-0.8 z"
   inkscape:connector-curvature="0"
   style="fill:#ffffff" />

		<path
   id="path3014"
   d="m 285,67.4 c 0,0.7 -0.6,1.5 -1.8,2.4 -1.2,0.9 -2.4,1.4 -3.6,1.4 -1,0 -1.9,-0.3 -2.4,-0.9 -0.6,-0.6 -0.9,-1.5 -0.9,-2.6 0,-1.9 0.6,-3.6 1.9,-5.3 1.3,-1.7 2.6,-2.5 4.1,-2.5 0.5,0 0.9,0.2 1.2,0.5 0.3,0.3 0.5,0.7 0.5,1.2 0,1 -0.5,2 -1.5,2.9 -1,0.9 -2.3,1.8 -3.9,2.7 -0.3,0.2 -0.5,0.4 -0.5,0.7 0,0.5 0.2,1 0.5,1.3 0.3,0.3 0.8,0.5 1.4,0.5 1.4,0 2.8,-0.8 4.3,-2.3 0.2,-0.2 0.4,-0.3 0.5,-0.3 0.1,-0.2 0.2,-0.1 0.2,0.3 z m -6.7,-1.6 c 2.8,-1.6 4.1,-3 4.1,-4 0,-0.4 -0.2,-0.6 -0.5,-0.6 -0.6,0 -1.3,0.4 -2,1.3 -0.7,0.9 -1.3,2.1 -1.6,3.3 z"
   inkscape:connector-curvature="0"
   style="fill:#ffffff" />

		<path
   id="path3016"
   d="m 289,68.5 c 0,0.5 0.1,1.1 0.2,1.7 0,0.1 0,0.2 0,0.3 0,0.1 -0.1,0.3 -0.3,0.5 -0.2,0.2 -0.4,0.3 -0.7,0.3 -0.6,0 -0.9,-0.6 -0.9,-1.7 0,-1.2 0.2,-3.1 0.7,-5.7 0.2,-0.9 0.3,-1.5 0.3,-1.7 0,-0.4 0.1,-0.8 0.2,-1 0.1,-0.3 0.4,-0.4 0.6,-0.4 0.3,0 0.6,0.1 0.8,0.2 0.2,0.2 0.3,0.3 0.3,0.5 0,0.2 0,0.5 -0.1,0.8 -0.5,1.7 -0.8,2.9 -0.9,3.7 -0.1,0.8 -0.2,1.5 -0.2,2.5 z m 1.2,-10.9 c -0.1,0 -0.2,-0.1 -0.3,-0.4 0,-0.1 -0.1,-0.2 -0.1,-0.3 -0.2,-0.4 -0.3,-0.8 -0.3,-1.1 0,-0.3 0.2,-0.5 0.5,-0.8 0.3,-0.3 0.7,-0.4 1,-0.4 0.2,0 0.4,0.1 0.6,0.2 0.2,0.1 0.4,0.3 0.4,0.4 0,0.2 -0.1,0.6 -0.2,1.1 -0.2,0.5 -0.4,0.9 -0.8,1 -0.3,0.2 -0.6,0.3 -0.8,0.3 z"
   inkscape:connector-curvature="0"
   style="fill:#ffffff" />

		<path
   id="path3018"
   d="m 295.7,71.2 c -0.9,0 -1.6,-0.3 -2.2,-1 -0.6,-0.7 -0.9,-1.5 -0.9,-2.5 0,-1.7 0.6,-3.3 1.7,-5 1.1,-1.6 2.5,-2.4 4.1,-2.4 1,0 1.9,0.4 2.5,1.2 0.6,0.8 1,1.8 1,2.9 0,1.7 -0.7,3.3 -2,4.7 -1.3,1.4 -2.7,2.1 -4.2,2.1 z m -1.3,-3.8 c 0,0.7 0.1,1.2 0.4,1.6 0.3,0.4 0.6,0.6 1.1,0.6 1,0 1.9,-0.5 2.9,-1.6 1,-1.1 1.5,-2.2 1.5,-3.5 0,-0.8 -0.2,-1.5 -0.6,-1.9 -0.4,-0.4 -0.9,-0.7 -1.5,-0.7 -1,0 -1.9,0.6 -2.7,1.9 -0.8,1.2 -1.1,2.4 -1.1,3.6 z"
   inkscape:connector-curvature="0"
   style="fill:#ffffff" />

	</g>

	<g
   id="g3020">
		<path
   id="path3022"
   d="m 90.6,40 c -2.4,0 -5.6,-1 -7,-3.1 -0.1,-0.1 -0.1,-0.3 -0.1,-0.4 0,-0.4 0.4,-0.7 0.7,-0.7 0.2,0 0.4,0.1 0.6,0.3 0,0 0.1,0.1 0.3,0.4 1.4,1.5 3.6,2.2 5.6,2.2 4.2,0 7.2,-2.4 7.2,-5.6 0,-8 -14.2,-5.1 -14.2,-13.7 0,-4.1 3.6,-6.5 7.4,-6.5 2.6,0 5.7,1.4 7.3,3.6 0.1,0.1 0.1,0.3 0.1,0.4 0,0.4 -0.3,0.7 -0.7,0.7 -0.2,0 -0.4,-0.1 -0.6,-0.3 0,0 -0.1,-0.2 -0.4,-0.5 -1.5,-1.5 -3.6,-2.6 -5.8,-2.6 -3.3,0 -6,2 -6,5.1 0,7.2 14.2,4.4 14.2,13.7 -0.1,4.3 -4,7 -8.6,7 z"
   inkscape:connector-curvature="0"
   style="fill:#ffffff" />

		<path
   id="path3024"
   d="m 110.3,39.2 c -0.1,0.4 -0.4,0.6 -0.7,0.6 -0.2,0 -0.5,-0.2 -0.7,-0.6 l -6.7,-17.3 c -0.2,-0.5 0.2,-0.9 0.7,-0.9 0.2,0 0.5,0.1 0.6,0.5 l 6,15.6 6,-15.6 c 0.1,-0.3 0.4,-0.5 0.6,-0.5 0.5,0 0.9,0.5 0.7,0.9 l -6.5,17.3 z"
   inkscape:connector-curvature="0"
   style="fill:#ffffff" />

		<path
   id="path3026"
   d="m 132.6,30.2 h -10.9 v 3.3 c 0,2.8 2.6,5.1 5.4,5.1 1.4,0 3.4,-0.6 4.2,-1.8 0.2,-0.2 0.4,-0.3 0.6,-0.3 0.4,0 0.7,0.3 0.7,0.7 0,0.3 -0.3,0.6 -0.5,0.8 -1.3,1.4 -3.2,2 -5.1,2 -3.5,0 -6.8,-2.8 -6.8,-6.5 V 27 c 0,-3.6 2.9,-6.5 6.5,-6.5 3.6,0 6.5,2.9 6.5,6.5 v 2.5 c 0.1,0.4 -0.2,0.7 -0.6,0.7 z m -0.7,-3.1 c 0,-2.8 -2.3,-5.1 -5.1,-5.1 -2.8,0 -5.1,2.3 -5.1,5.1 v 1.8 h 10.2 v -1.8 z"
   inkscape:connector-curvature="0"
   style="fill:#ffffff" />

		<path
   id="path3028"
   d="m 138.6,13.4 c 0.6,0 1.1,0.5 1.1,1.1 0,0.6 -0.5,1.1 -1.1,1.1 -0.6,0 -1.1,-0.5 -1.1,-1.1 0,-0.6 0.5,-1.1 1.1,-1.1 z m -0.7,8.2 c 0,-0.5 0.4,-0.7 0.7,-0.7 0.4,0 0.7,0.2 0.7,0.7 V 39 c 0,0.5 -0.4,0.7 -0.7,0.7 -0.4,0 -0.7,-0.2 -0.7,-0.7 V 21.6 z"
   inkscape:connector-curvature="0"
   style="fill:#ffffff" />

		<path
   id="path3030"
   d="m 150.6,40 c -3.6,0 -6.5,-2.9 -6.5,-6.5 V 27 c 0,-3.6 2.9,-6.5 6.5,-6.5 3.6,0 6.5,2.9 6.5,6.5 v 6.5 c -0.1,3.6 -3,6.5 -6.5,6.5 z m 5,-12.9 c 0,-2.8 -2.3,-5.1 -5.1,-5.1 -2.8,0 -5.1,2.3 -5.1,5.1 v 6.5 c 0,2.8 2.3,5.1 5.1,5.1 2.8,0 5.1,-2.3 5.1,-5.1 v -6.5 z"
   inkscape:connector-curvature="0"
   style="fill:#ffffff" />

		<path
   id="path3032"
   d="m 182.1,39.7 c -0.2,0 -0.4,-0.1 -0.6,-0.3 l -6.8,-9.1 -3.2,3.7 v 5 c 0,0.5 -0.4,0.7 -0.7,0.7 -0.3,0 -0.7,-0.2 -0.7,-0.7 V 13.8 c 0,-0.5 0.4,-0.7 0.7,-0.7 0.4,0 0.7,0.2 0.7,0.7 v 18.1 l 9.1,-10.6 c 0.1,-0.2 0.4,-0.2 0.5,-0.2 0.3,0 0.7,0.3 0.7,0.7 0,0.1 0,0.3 -0.2,0.5 l -6.1,7.1 7,9.4 c 0.1,0.1 0.1,0.3 0.1,0.4 0.2,0.2 -0.1,0.5 -0.5,0.5 z"
   inkscape:connector-curvature="0"
   style="fill:#ffffff" />

		<path
   id="path3034"
   d="m 192.3,40 c -3.6,0 -6.5,-2.9 -6.5,-6.5 V 27 c 0,-3.6 2.9,-6.5 6.5,-6.5 3.6,0 6.5,2.9 6.5,6.5 v 6.5 c -0.1,3.6 -3,6.5 -6.5,6.5 z m 5,-12.9 c 0,-2.8 -2.3,-5.1 -5.1,-5.1 -2.8,0 -5.1,2.3 -5.1,5.1 v 6.5 c 0,2.8 2.3,5.1 5.1,5.1 2.8,0 5.1,-2.3 5.1,-5.1 v -6.5 z"
   inkscape:connector-curvature="0"
   style="fill:#ffffff" />

		<path
   id="path3036"
   d="m 224.5,39.7 c -0.4,0 -0.7,-0.2 -0.7,-0.7 V 26.4 c 0,-2.4 -2,-4.4 -4.4,-4.4 -2.4,0 -4.4,2 -4.4,4.4 V 39 c 0,0.5 -0.4,0.7 -0.7,0.7 -0.4,0 -0.7,-0.2 -0.7,-0.7 V 26.4 c 0,-2.4 -2,-4.4 -4.4,-4.4 -2.4,0 -4.4,2 -4.4,4.4 V 39 c 0,0.5 -0.4,0.7 -0.7,0.7 -0.3,0 -0.7,-0.2 -0.7,-0.7 V 26.4 c 0,-3.2 2.6,-5.8 5.8,-5.8 2.2,0 4.1,1.2 5.1,3 1,-1.8 2.9,-3 5.1,-3 3.2,0 5.8,2.6 5.8,5.8 V 39 c 0,0.4 -0.4,0.7 -0.7,0.7 z"
   inkscape:connector-curvature="0"
   style="fill:#ffffff" />

		<path
   id="path3038"
   d="m 251.1,39.7 c -0.4,0 -0.7,-0.2 -0.7,-0.7 V 26.4 c 0,-2.4 -2,-4.4 -4.4,-4.4 -2.4,0 -4.4,2 -4.4,4.4 V 39 c 0,0.5 -0.4,0.7 -0.7,0.7 -0.4,0 -0.7,-0.2 -0.7,-0.7 V 26.4 c 0,-2.4 -2,-4.4 -4.4,-4.4 -2.4,0 -4.4,2 -4.4,4.4 V 39 c 0,0.5 -0.4,0.7 -0.7,0.7 -0.3,0 -0.7,-0.2 -0.7,-0.7 V 26.4 c 0,-3.2 2.6,-5.8 5.8,-5.8 2.2,0 4.1,1.2 5.1,3 1,-1.8 2.9,-3 5.1,-3 3.2,0 5.8,2.6 5.8,5.8 V 39 c 0,0.4 -0.4,0.7 -0.7,0.7 z"
   inkscape:connector-curvature="0"
   style="fill:#ffffff" />

		<path
   id="path3040"
   d="m 263.2,40 c -3.6,0 -6.5,-2.9 -6.5,-6.5 V 21.6 c 0,-0.5 0.4,-0.7 0.7,-0.7 0.4,0 0.7,0.2 0.7,0.7 v 11.9 c 0,2.8 2.3,5.1 5.1,5.1 2.8,0 5.1,-2.3 5.1,-5.1 V 21.6 c 0,-0.5 0.3,-0.7 0.7,-0.7 0.4,0 0.7,0.2 0.7,0.7 v 11.9 c -0.1,3.6 -3,6.5 -6.5,6.5 z"
   inkscape:connector-curvature="0"
   style="fill:#ffffff" />

		<path
   id="path3042"
   d="m 286.8,39.7 c -0.4,0 -0.7,-0.2 -0.7,-0.7 V 27.1 c 0,-2.8 -2.3,-5.1 -5.1,-5.1 -2.8,0 -5.1,2.3 -5.1,5.1 V 39 c 0,0.5 -0.4,0.7 -0.7,0.7 -0.3,0 -0.7,-0.2 -0.7,-0.7 V 27.1 c 0,-3.6 2.9,-6.5 6.5,-6.5 3.6,0 6.5,2.9 6.5,6.5 V 39 c 0,0.4 -0.3,0.7 -0.7,0.7 z"
   inkscape:connector-curvature="0"
   style="fill:#ffffff" />

		<path
   id="path3044"
   d="m 304.5,30.2 h -10.9 v 3.3 c 0,2.8 2.6,5.1 5.4,5.1 1.4,0 3.4,-0.6 4.2,-1.8 0.2,-0.2 0.4,-0.3 0.6,-0.3 0.4,0 0.7,0.3 0.7,0.7 0,0.3 -0.3,0.6 -0.5,0.8 -1.3,1.4 -3.2,2 -5.1,2 -3.5,0 -6.8,-2.8 -6.8,-6.5 V 27 c 0,-3.6 2.9,-6.5 6.5,-6.5 3.6,0 6.5,2.9 6.5,6.5 v 2.5 c 0.1,0.4 -0.2,0.7 -0.6,0.7 z m -0.7,-3.1 c 0,-2.8 -2.3,-5.1 -5.1,-5.1 -2.8,0 -5.1,2.3 -5.1,5.1 v 1.8 h 10.2 v -1.8 z"
   inkscape:connector-curvature="0"
   style="fill:#ffffff" />

	</g>

	<g
   id="g3046">
		<path
   id="path3048"
   d="M 32.3,0 H 0 l 0.6,11.1 c 0.2,6.1 1,11 1.5,16.4 1.2,11.6 5.6,22.3 11.3,31.8 5.1,8.2 11.5,14.8 18.9,21.5 0,0 0,0 0,0 0,0 0,0 0,0 C 39.7,74.2 46,67.5 51.2,59.3 56.9,49.9 61.3,39.2 62.5,27.5 63,22.1 63.8,17.1 64,11.1 L 64.6,0 H 32.3 z"
   inkscape:connector-curvature="0"
   style="fill:#ee4135" />

		<path
   id="path3050"
   d="m 34.9,45.3 c 0,0 2.3,-22.6 18.6,-22.6 0,0 6.9,-0.1 6.9,8.5 0,2.2 -1,3.3 -3.5,5.8 -2.5,2.5 -3.2,5.4 -1.7,10.6 0.1,0.4 -0.3,0.4 -0.3,0.4 0,0 -8.2,-0.4 -7.2,-8.4 1.1,-9.2 -4.9,-6.5 -7.5,-2.4 -2.3,3.5 -3.6,8.2 -3.6,8.2 h -1.7 z"
   inkscape:connector-curvature="0"
   style="fill:#ffffff" />

		<path
   id="path3052"
   d="m 32.6,42.9 c 0,-9.3 2,-41.9 30.3,-41.9 0.8,0 0,0.8 0,0.8 -1.4,1.6 -2.6,4.6 -2.6,6.5 0,7.2 -5.5,8.8 -8.5,10.3 -17,8.4 -17.7,26.7 -17.7,26.7 h -1.5 l 0,-2.4 z"
   inkscape:connector-curvature="0"
   style="fill:#ffffff" />

		<path
   id="path3054"
   d="m 37.4,50.9 c 0,0 1.9,7.1 5.4,7.1 2.1,0 2.5,-2.7 2.6,-3.5 0,-0.1 0.6,-4.5 5.2,-4.5 0.7,0 1.1,0.1 1.4,0.2 0,0 0.9,0.3 0.6,0.6 -0.1,0.1 -0.3,0.3 -0.4,0.4 -0.1,0.1 -0.3,0.3 -0.5,0.5 -2.7,2.6 -2.2,4.3 -2.2,6.3 0,2.5 -2.6,7.8 -6.6,7.8 -4.4,0 -8.4,-9.5 -8.4,-14.9 h 2.9 z"
   inkscape:connector-curvature="0"
   style="fill:#ffffff" />

		<path
   id="path3056"
   d="m 29.7,45.3 c 0,0 -2.3,-22.6 -18.6,-22.6 0,0 -6.9,-0.1 -6.9,8.5 0,2.2 1,3.3 3.5,5.8 2.5,2.5 3.2,5.4 1.7,10.6 -0.1,0.4 0.3,0.4 0.3,0.4 0,0 8.2,-0.4 7.2,-8.4 -1.1,-9.2 4.9,-6.5 7.5,-2.4 2.3,3.5 3.6,8.2 3.6,8.2 h 1.7 z"
   inkscape:connector-curvature="0"
   style="fill:#ffffff" />

		<path
   id="path3058"
   d="m 37.3,46.3 h -5.1 -5.1 c -0.5,0 -0.8,0.8 -0.8,1.8 0,1 0.4,1.8 0.8,1.8 h 5.1 5.1 c 0.5,0 0.8,-0.8 0.8,-1.8 0.1,-1 -0.3,-1.8 -0.8,-1.8"
   inkscape:connector-curvature="0"
   style="fill:#ffffff" />

		<path
   id="path3060"
   d="M 37.7,63.7 C 33.6,57.2 33.8,50.9 33.8,50.9 h -1.5 -1.5 c 0,0 0.1,6.2 -3.9,12.8 -1.1,1.8 -1.7,3.8 -1.7,4.7 0,0.9 0.2,1.8 2.3,3.8 2,1.9 3.7,4.2 4.4,5.8 0.3,0.6 0.2,0.7 0.4,0.7 0.2,0 0.2,-0.2 0.4,-0.7 0.8,-1.6 2.5,-3.8 4.4,-5.8 2,-2 2.3,-2.9 2.3,-3.8 0,-0.9 -0.6,-2.9 -1.7,-4.7"
   inkscape:connector-curvature="0"
   style="fill:#ffffff" />

		<path
   id="path3062"
   d="M 31.9,42.9 C 31.9,33.6 30,1 1.6,1 c -0.8,0 0,0.8 0,0.8 1.4,1.6 2.6,4.6 2.6,6.5 0,7.2 5.5,8.8 8.5,10.3 17,8.4 17.7,26.7 17.7,26.7 h 1.5 l 0,-2.4 z"
   inkscape:connector-curvature="0"
   style="fill:#ffffff" />

		<path
   id="path3064"
   d="m 27.2,50.9 c 0,0 -1.9,7.1 -5.4,7.1 -2.1,0 -2.5,-2.7 -2.6,-3.5 0,-0.1 -0.6,-4.5 -5.2,-4.5 -0.7,0 -1.1,0.1 -1.4,0.2 0,0 -0.9,0.3 -0.6,0.6 0.1,0.1 0.3,0.3 0.4,0.4 0.1,0.1 0.3,0.3 0.5,0.5 2.7,2.7 2.2,4.4 2.2,6.4 0,2.5 2.6,7.8 6.6,7.8 4.4,0 8.4,-9.5 8.4,-14.9 h -2.9 z"
   inkscape:connector-curvature="0"
   style="fill:#ffffff" />

	</g>

</g>
  </g>
</svg>
